<?xml version="1.0" encoding="utf-8"?>
<!-- Generator: Adobe Illustrator 25.3.1, SVG Export Plug-In . SVG Version: 6.00 Build 0)  -->
<svg version="1.1" xmlns="http://www.w3.org/2000/svg" xmlns:xlink="http://www.w3.org/1999/xlink" x="0px" y="0px"
	 viewBox="0 0 1909 645" style="enable-background:new 0 0 1909 645;" xml:space="preserve">
<style type="text/css">
	.st0{fill:#F5C3BC;stroke:#354848;stroke-width:0.2rem;stroke-miterlimit:10;}
	.st1{font-family:'AmazonEmberDisplayLight'; color: #354848}
	.st2{font-size:40px;}
	.st3{display:none;fill:#F3E8D4;stroke:#354848;stroke-miterlimit:10;}
	.st4{fill:#cae0ed;stroke:#354848;stroke-width:0.2rem; stroke-miterlimit:10;}
	circle{fill:#354848}
	text{color:#354848}
	.st5{fill:#354848}
@font-face {
  font-family: AmazonEmberDisplayLight;
  src: url("./AmazonEmberDisplay_Lt.5462acb9.otf") format("opentype");
}
}
</style>
<g id="tails">
	<circle class="st0" cx="155.5" cy="323.5" r="115"/>
	<text transform="matrix(1 0 0 1 115.3315 335.127)" class="st1 st2">Data</text>
	<circle class="st0" cx="1754.5" cy="327.5" r="115"/>
	<text transform="matrix(1 0 0 1 1661.2827 315.127)"><tspan x="0" y="0" class="st1 st2">Aggregate</tspan>
	<tspan x="3.36" y="48" class="st1 st2">Prediction</tspan></text>
</g>
<g id="brackets">
	<path class="st5" d="M302.8,318.2c-4,0-7.3,3.3-7.3,7.3c0,4.1,3.3,7.3,7.3,7.3c8.5,0,15.2,2.8,20.5,8.4c15.4,16.6,13.3,51.3,13.3,52.2V487
		c0,23.6,6.5,41.8,19.3,54c15.4,14.7,34.8,15.8,40,15.8c0.7,0,1.2,0,1.3,0c4-0.2,7.1-3.7,6.9-7.7c-0.2-4.1-3.7-7.2-7.7-7
		c-0.2,0.1-17.4,0.8-30.4-11.7c-9.8-9.4-14.8-24-14.8-43.4v-93.1c0.1-1.7,2.5-41.5-17.2-62.7c-2-2.2-4.2-4.1-6.6-5.8
		c2.3-1.6,4.5-3.6,6.6-5.8c19.7-21.2,17.3-61,17.2-62.2V164c0-19.3,4.9-33.9,14.7-43.3c12.9-12.4,30.3-11.9,30.6-11.8
		c4,0.2,7.4-2.9,7.6-7s-2.9-7.5-6.9-7.7c-1,0-23.7-1-41.2,15.7c-12.8,12.3-19.3,30.4-19.3,54V258c0.7,9.7-0.5,37.8-13.3,51.6
		C318,315.5,311.3,318.2,302.8,318.2z"/>
	<path class="st5" d="M1606.7,333c4,0,7.3-3.3,7.3-7.3c0-4.1-3.3-7.3-7.3-7.3c-8.5,0-15.2-2.8-20.5-8.4c-15.4-16.6-13.3-51.3-13.3-52.2V164
		c0-23.6-6.5-41.8-19.3-54c-15.4-14.7-34.8-15.8-40-15.8c-0.7,0-1.2,0-1.3,0c-4,0.2-7.1,3.7-6.9,7.7c0.2,4.1,3.7,7.2,7.7,7
		c0.2-0.1,17.4-0.8,30.4,11.7c9.8,9.4,14.8,24,14.8,43.4v93.1c-0.1,1.7-2.5,41.5,17.2,62.7c2,2.2,4.2,4.1,6.6,5.8
		c-2.3,1.6-4.5,3.6-6.6,5.8c-19.7,21.2-17.3,61-17.2,62.2v93.6c0,19.3-4.9,33.9-14.7,43.3c-12.9,12.4-30.3,11.9-30.6,11.8
		c-4-0.2-7.4,2.9-7.6,7s2.9,7.5,6.9,7.7c1,0,23.7,1,41.2-15.7c12.8-12.3,19.3-30.4,19.3-54v-94.1c-0.7-9.7,0.5-37.8,13.3-51.6
		C1591.5,335.7,1598.2,333,1606.7,333z"/>
</g>
<g id="samples">
	<path class="st4" d="M621.5,132H458c-11.6,0-21-9.4-21-21V95.5c0-11.6,9.4-21,21-21h163.5c11.6,0,21,9.4,21,21V111
		C642.5,122.6,633.1,132,621.5,132z"/>
	<path class="st4" d="M621.26,254.34h-163.5c-11.6,0-21-9.4-21-21v-15.5c0-11.6,9.4-21,21-21h163.5c11.6,0,21,9.4,21,21v15.5
		C642.26,244.94,632.86,254.34,621.26,254.34z"/>
	<path class="st4" d="M621.26,376.34h-163.5c-11.6,0-21-9.4-21-21v-15.5c0-11.6,9.4-21,21-21h163.5c11.6,0,21,9.4,21,21v15.5
		C642.26,366.94,632.86,376.34,621.26,376.34z"/>
	<path class="st4" d="M621.26,574.34h-163.5c-11.6,0-21-9.4-21-21v-15.5c0-11.6,9.4-21,21-21h163.5c11.6,0,21,9.4,21,21v15.5
		C642.26,564.94,632.86,574.34,621.26,574.34z"/>
	<text transform="matrix(1 0 0 1 458.7754 115.5913)" class="st1 st2">Sample 1</text>
	<text transform="matrix(1 0 0 1 457.7911 237.9929)" class="st1 st2">Sample 2</text>
	<text transform="matrix(1 0 0 1 457.7912 362.9931)" class="st1 st2">Sample 3</text>
	<text transform="matrix(1 0 0 1 451.4709 557.9931)" class="st1 st2">Sample N</text>
	<circle cx="542" cy="408" r="7"/>
	<circle cx="542" cy="445" r="7"/>
	<circle cx="542" cy="488" r="7"/>
</g>
<g id="models">
	<path class="st4" d="M1022.5,132H859c-11.6,0-21-9.4-21-21V95.5c0-11.6,9.4-21,21-21h163.5c11.6,0,21,9.4,21,21V111
		C1043.5,122.6,1034.1,132,1022.5,132z"/>
	<path class="st4" d="M1022.26,254.34h-163.5c-11.6,0-21-9.4-21-21v-15.5c0-11.6,9.4-21,21-21h163.5c11.6,0,21,9.4,21,21v15.5
		C1043.26,244.94,1033.85,254.34,1022.26,254.34z"/>
	<path class="st4" d="M1022.26,376.34h-163.5c-11.6,0-21-9.4-21-21v-15.5c0-11.6,9.4-21,21-21h163.5c11.6,0,21,9.4,21,21v15.5
		C1043.26,366.94,1033.85,376.34,1022.26,376.34z"/>
	<path class="st4" d="M1022.26,574.34h-163.5c-11.6,0-21-9.4-21-21v-15.5c0-11.6,9.4-21,21-21h163.5c11.6,0,21,9.4,21,21v15.5
		C1043.26,564.94,1033.85,574.34,1022.26,574.34z"/>
	<text transform="matrix(1 0 0 1 872.1152 116.5913)" class="st1 st2">Model 1</text>
	<text transform="matrix(1 0 0 1 872.131 237.9929)" class="st1 st2">Model 2</text>
	<text transform="matrix(1 0 0 1 872.1311 362.9931)" class="st1 st2">Model 3</text>
	<text transform="matrix(1 0 0 1 868.8108 557.9931)" class="st1 st2">Model N</text>
	<circle cx="943" cy="408" r="7"/>
	<circle cx="943" cy="445" r="7"/>
	<circle cx="943" cy="488" r="7"/>
</g>
<g id="predictions" >
	<path class="st4" d="M1456.5,574.34h-202.74c-11.6,0-21-9.4-21-21v-15.5c0-11.6,9.4-21,21-21h202.74c11.6,0,21,9.4,21,21v15.5
		C1477.5,564.94,1468.1,574.34,1456.5,574.34z"/>
	<path class="st4" d="M1456.5,378.34h-202.74c-11.6,0-21-9.4-21-21v-15.5c0-11.6,9.4-21,21-21h202.74c11.6,0,21,9.4,21,21v15.5
		C1477.5,368.94,1468.1,378.34,1456.5,378.34z"/>
	<path class="st4" d="M1456.5,254.34h-202.74c-11.6,0-21-9.4-21-21v-15.5c0-11.6,9.4-21,21-21h202.74c11.6,0,21,9.4,21,21v15.5
		C1477.5,244.94,1468.1,254.34,1456.5,254.34z"/>
	<path class="st4" d="M1456.5,134.34h-202.74c-11.6,0-21-9.4-21-21v-15.5c0-11.6,9.4-21,21-21h202.74c11.6,0,21,9.4,21,21v15.5
		C1477.5,124.94,1468.1,134.34,1456.5,134.34z"/>
	<text transform="matrix(1 0 0 1 1249.6523 116.5913)" class="st2 st1">Prediction 1</text>
	<text transform="matrix(1 0 0 1 1249.6681 237.9929)" class="st2 st1">Prediction 2</text>
	<text transform="matrix(1 0 0 1 1249.6682 362.9931)" class="st2 st1">Prediction 3</text>
	<text transform="matrix(1 0 0 1 1246.3479 557.9931)" class="st2 st1">Prediction N</text>
	<circle cx="1355" cy="445" r="7"/>
	<circle cx="1355" cy="488" r="7"/>
	<circle cx="1355" cy="408" r="7"/>
</g>
<g id="arrow"  fill = "#354848">
	<g id="Layer_24">
		<path d="M769.45,126.09l30.29-17.5c1.43-0.94,1.83-2.85,0.9-4.29c-0.23-0.36-0.54-0.66-0.9-0.9l-30.29-17.5
			c-1.47-0.8-3.3-0.25-4.1,1.22c-0.53,0.97-0.48,2.15,0.12,3.08l8.78,12.79h-110.4c-1.66,0-3,1.34-3,3c0,1.66,1.34,3,3,3h110.4
			l-8.78,12.79c-0.9,1.4-0.5,3.28,0.9,4.18C767.3,126.57,768.48,126.61,769.45,126.09L769.45,126.09z"/>
	</g>
	<g id="Layer_24_1_">
		<path d="M769.22,246.09l30.29-17.5c1.43-0.94,1.83-2.85,0.9-4.29c-0.23-0.36-0.54-0.66-0.9-0.9l-30.29-17.5
			c-1.47-0.8-3.3-0.25-4.1,1.22c-0.53,0.97-0.48,2.15,0.12,3.08l8.78,12.79h-110.4c-1.66,0-3,1.34-3,3s1.34,3,3,3h110.4l-8.78,12.79
			c-0.9,1.4-0.5,3.28,0.9,4.18C767.07,246.57,768.25,246.61,769.22,246.09L769.22,246.09z"/>
	</g>
	<g id="Layer_24_2_">
		<path d="M769.22,368.09l30.29-17.5c1.43-0.94,1.83-2.85,0.9-4.29c-0.23-0.36-0.54-0.66-0.9-0.9l-30.29-17.5
			c-1.47-0.8-3.3-0.25-4.1,1.22c-0.53,0.97-0.48,2.15,0.12,3.08l8.78,12.79h-110.4c-1.66,0-3,1.34-3,3s1.34,3,3,3h110.4l-8.78,12.79
			c-0.9,1.4-0.5,3.28,0.9,4.18C767.07,368.57,768.25,368.61,769.22,368.09L769.22,368.09z"/>
	</g>
	<g id="Layer_24_3_">
		<path d="M769.22,566.09l30.29-17.5c1.43-0.94,1.83-2.85,0.9-4.29c-0.23-0.36-0.54-0.66-0.9-0.9l-30.29-17.5
			c-1.47-0.8-3.3-0.25-4.1,1.22c-0.53,0.97-0.48,2.15,0.12,3.08l8.78,12.79h-110.4c-1.66,0-3,1.34-3,3s1.34,3,3,3h110.4l-8.78,12.79
			c-0.9,1.4-0.5,3.28,0.9,4.18C767.07,566.57,768.25,566.61,769.22,566.09L769.22,566.09z"/>
	</g>
</g>
<g id="arrow" fill = "#354848">
	<g id="Layer_24_7_">
		<path d="M1173.45,126.09l30.29-17.5c1.43-0.94,1.83-2.85,0.9-4.29c-0.23-0.36-0.54-0.66-0.9-0.9l-30.29-17.5
			c-1.47-0.8-3.3-0.25-4.1,1.22c-0.53,0.97-0.48,2.15,0.12,3.08l8.78,12.79h-110.4c-1.66,0-3,1.34-3,3c0,1.66,1.34,3,3,3h110.4
			l-8.78,12.79c-0.9,1.4-0.5,3.28,0.9,4.18C1171.3,126.57,1172.48,126.61,1173.45,126.09L1173.45,126.09z"/>
	</g>
	<g id="Layer_24_6_">
		<path d="M1173.22,246.09l30.29-17.5c1.43-0.94,1.83-2.85,0.9-4.29c-0.23-0.36-0.54-0.66-0.9-0.9l-30.29-17.5
			c-1.47-0.8-3.3-0.25-4.1,1.22c-0.53,0.97-0.48,2.15,0.12,3.08l8.78,12.79h-110.4c-1.66,0-3,1.34-3,3s1.34,3,3,3h110.4l-8.78,12.79
			c-0.9,1.4-0.5,3.28,0.9,4.18C1171.07,246.57,1172.25,246.61,1173.22,246.09L1173.22,246.09z"/>
	</g>
	<g id="Layer_24_5_">
		<path d="M1173.22,368.09l30.29-17.5c1.43-0.94,1.83-2.85,0.9-4.29c-0.23-0.36-0.54-0.66-0.9-0.9l-30.29-17.5
			c-1.47-0.8-3.3-0.25-4.1,1.22c-0.53,0.97-0.48,2.15,0.12,3.08l8.78,12.79h-110.4c-1.66,0-3,1.34-3,3s1.34,3,3,3h110.4l-8.78,12.79
			c-0.9,1.4-0.5,3.28,0.9,4.18C1171.07,368.57,1172.25,368.61,1173.22,368.09L1173.22,368.09z"/>
	</g>
	<g id="Layer_24_4_">
		<path d="M1173.22,566.09l30.29-17.5c1.43-0.94,1.83-2.85,0.9-4.29c-0.23-0.36-0.54-0.66-0.9-0.9l-30.29-17.5
			c-1.47-0.8-3.3-0.25-4.1,1.22c-0.53,0.97-0.48,2.15,0.12,3.08l8.78,12.79h-110.4c-1.66,0-3,1.34-3,3s1.34,3,3,3h110.4l-8.78,12.79
			c-0.9,1.4-0.5,3.28,0.9,4.18C1171.07,566.57,1172.25,566.61,1173.22,566.09L1173.22,566.09z"/>
	</g>
</g>
</svg>
