<svg xmlns="http://www.w3.org/2000/svg" xmlns:xlink="http://www.w3.org/1999/xlink" xml:space="preserve" style="shape-rendering:geometricPrecision;text-rendering:geometricPrecision;image-rendering:optimizeQuality;" viewBox="0 0 0.333331 0.41666375" x="0px" y="0px" fill-rule="evenodd" clip-rule="evenodd"><defs><style type="text/css">
   
    .fil0 {fill:black}
   
  </style></defs><g><path class="fil0" d="M0.198079 0.134472c0.0123346,-0.0082874 0.0297362,-0.0150669 0.0563622,-0.0218661 -0.0309094,0.0218031 -0.0410472,0.0410157 -0.0446614,0.0639528 0.0133268,-0.0299803 0.0277717,-0.0445906 0.0853701,-0.0593031 -0.0566024,0.0399331 -0.0357835,0.0732362 -0.0405787,0.134547l-0.168051 4.72441e-005c-0.00428346,-0.0551024 -0.000307087,-0.0985945 -0.0483425,-0.132472 0.019815,0.00505906 0.0345157,0.0101102 0.0458307,0.0157795 -0.00287402,-0.00502362 -0.00643701,-0.0101024 -0.0108583,-0.0153583 0.0167205,0.00719685 0.0260906,0.0143701 0.032315,0.0241102 0.00720866,-0.030126 0.0167165,-0.0462323 0.0466654,-0.0624252 -0.0100276,0.0149803 -0.0162205,0.0289449 -0.0200827,0.0433071 0.00645669,0.00348031 0.0114646,0.00709843 0.0154803,0.011126 0.00312205,-0.00224409 0.00657087,-0.00437402 0.0104449,-0.0064252 0.00706693,-0.0212677 0.0178583,-0.0346102 0.0426378,-0.0480079 -0.00879921,0.0131417 -0.0146457,0.0255079 -0.0185551,0.0380433 0.00702756,-0.00234252 0.0149449,-0.00462992 0.0239055,-0.00692126 -0.0126102,0.00889764 -0.0217559,0.0173583 -0.0284213,0.0258228 -0.000771654,0.00447244 -0.00137008,0.00902756 -0.00184252,0.0136969 0.00565748,-0.00673228 0.0127087,-0.0124646 0.0223819,-0.0176535zm-0.0715157 0.0253543c0.00310236,-0.00551969 0.0065315,-0.0104409 0.0107008,-0.0149173 -0.00181102,-0.00441339 -0.00406693,-0.00879528 -0.00688976,-0.013252 -0.0019685,0.00903937 -0.00311417,0.018315 -0.00381102,0.0281693z"/></g><text x="0" y="15.333331" fill="#000000" font-size="5px" font-weight="bold" font-family="'Helvetica Neue', Helvetica, Arial-Unicode, Arial, Sans-serif">Created by laili</text><text x="0" y="20.333331" fill="#000000" font-size="5px" font-weight="bold" font-family="'Helvetica Neue', Helvetica, Arial-Unicode, Arial, Sans-serif">from the Noun Project</text></svg>